<svg class="atffc4-0 bifZok" viewBox="0 0 20 20" xmlns="http://www.w3.org/2000/svg">
  <path
    d="M15,2H13a1,1,0,0,0,0,2h2a1,1,0,0,1,1,1V15a1,1,0,0,1-1,1H5a1,1,0,0,1-1-1V13a1,1,0,0,0-2,0v2a3,3,0,0,0,3,3H15a3,3,0,0,0,3-3V5A3,3,0,0,0,15,2Z">
  </path>
  <path
    d="M2.79,5a.71.71,0,0,0,.53-.2.74.74,0,0,0,.19-.54V4.08l0-.48H5.07V8.4H4.9a1,1,0,0,0-.69.18A.79.79,0,0,0,4,9.2a.79.79,0,0,0,.21.61A1,1,0,0,0,4.9,10H7.1a1,1,0,0,0,.69-.19A.79.79,0,0,0,8,9.2a.78.78,0,0,0-.21-.61A1,1,0,0,0,7.1,8.4H6.93V3.6H8.44l0,.48a1.19,1.19,0,0,0,.18.72.7.7,0,0,0,.56.2.75.75,0,0,0,.59-.2A1,1,0,0,0,10,4.14V4.08L9.93,2.9q0-.64-.18-.77A1.06,1.06,0,0,0,9.11,2H2.89a1.06,1.06,0,0,0-.63.13q-.16.13-.18.77L2,4.08v.06a.94.94,0,0,0,.19.65A.78.78,0,0,0,2.79,5Z">
  </path>
</svg>