<?xml version="1.0" encoding="UTF-8" standalone="no"?>
<!-- Created with Inkscape (http://www.inkscape.org/) -->

<svg
   xmlns:dc="http://purl.org/dc/elements/1.1/"
   xmlns:cc="http://creativecommons.org/ns#"
   xmlns:rdf="http://www.w3.org/1999/02/22-rdf-syntax-ns#"
   xmlns:svg="http://www.w3.org/2000/svg"
   xmlns="http://www.w3.org/2000/svg"
   xmlns:sodipodi="http://sodipodi.sourceforge.net/DTD/sodipodi-0.dtd"
   xmlns:inkscape="http://www.inkscape.org/namespaces/inkscape"
   version="1.1"
   id="svg2"
   width="8538.0146"
   height="2603.9548"
   viewBox="0 0 8538.0146 2603.9548"
   sodipodi:docname="vba-logo-big.svg"
   inkscape:version="0.92.4 (5da689c313, 2019-01-14)">
  <metadata
     id="metadata8">
    <rdf:RDF>
      <cc:Work
         rdf:about="">
        <dc:format>image/svg+xml</dc:format>
        <dc:type
           rdf:resource="http://purl.org/dc/dcmitype/StillImage" />
        <dc:title></dc:title>
      </cc:Work>
    </rdf:RDF>
  </metadata>
  <defs
     id="defs6" />
  <sodipodi:namedview
     pagecolor="#ffffff"
     bordercolor="#666666"
     borderopacity="1"
     objecttolerance="10"
     gridtolerance="10"
     guidetolerance="10"
     inkscape:pageopacity="0"
     inkscape:pageshadow="2"
     inkscape:window-width="1920"
     inkscape:window-height="1027"
     id="namedview4"
     showgrid="false"
     inkscape:pagecheckerboard="true"
     inkscape:zoom="0.12551145"
     inkscape:cx="4260.8374"
     inkscape:cy="293.03677"
     inkscape:window-x="-8"
     inkscape:window-y="-8"
     inkscape:window-maximized="1"
     inkscape:current-layer="svg2"
     fit-margin-top="0"
     fit-margin-left="0"
     fit-margin-right="0"
     fit-margin-bottom="0" />
  <g
     id="g817"
     transform="matrix(5.7689291,0,0,5.7689291,-346.13575,-449.73181)">
    <path
       style="fill:#ded200;stroke-width:1.33333337"
       d="m 1254.3333,302.91468 -43.6666,-23.35243 V 248.4478 c 0,-17.11295 0.4172,-31.11446 0.9272,-31.11446 1.1094,0 84.6233,40.07972 86.0962,41.31902 0.5628,0.47362 0.8628,15.88069 0.6666,34.23793 L 1298,326.26711 Z m 56.3265,2.01729 c 0,-11.14591 -0.3726,-25.96529 -0.8196,-32.93196 l -0.8127,-12.66667 38.0178,-18.92945 38.0179,-18.92947 0.8973,18.92947 c 0.4935,10.4112 0.7043,25.7162 0.4684,34.01112 l -0.4289,15.08167 -33.3333,16.00697 c -18.3334,8.80383 -35.2834,16.83646 -37.6667,17.8503 l -4.3333,1.84333 -0.01,-20.26531 z m -50.9506,-75.28273 c -22.5266,-10.80707 -40.9766,-20.00067 -41,-20.43021 -0.023,-0.42953 17.4003,-8.07298 38.7193,-16.98545 l 38.7619,-16.20449 41.3297,18.9584 c 36.1799,16.59604 40.9447,19.1242 38.2383,20.28894 -1.7005,0.7318 -18.3631,8.69398 -37.028,17.69373 -18.6649,8.99976 -34.8649,16.35534 -35.9999,16.34574 -1.1351,-0.009 -20.4947,-8.85958 -43.0213,-19.66666 z"
       id="path835"
       inkscape:connector-curvature="0" />
    <path
       style="fill:#6281be;stroke-width:1.33333337"
       d="m 1341.6889,185.42773 c -18.5044,-8.48524 -33.6544,-15.73299 -33.6666,-16.10608 -0.012,-0.37311 15.8777,-8.62163 35.311,-18.33007 l 35.3334,-17.65169 v 33.18741 c 0,25.35683 -0.3932,33.32199 -1.6667,33.75777 -0.9167,0.31371 -16.8067,-6.37209 -35.3111,-14.85734 z m -123.3388,-1.28946 -15.6499,-7.4716 -0.017,-23.66666 c -0.01,-13.01667 0.4332,-23.66778 0.9832,-23.66914 1.5326,-0.004 82.9074,39.24275 82.9422,40.00247 0.025,0.54027 -31.6392,14.02611 -48.6089,20.70275 -3.667,1.4428 -5.3024,0.95196 -19.6499,-5.89782 z m 34.0752,-43.87712 -41.5747,-20.92781 38.2414,-16.33373 c 21.0327,-8.983546 38.6414,-16.333547 39.1303,-16.333331 1.3108,5.76e-4 78.9096,35.932221 80.0388,37.061451 1.077,1.07711 -69.456,37.64681 -72.3919,37.53342 -1.0281,-0.0397 -20.5778,-9.4897 -43.4439,-21 z"
       id="path833"
       inkscape:connector-curvature="0" />
    <path
       style="fill:#d6792e;stroke-width:1.33333337"
       d="M 1107.6667,289.82792 1064,266.39192 v -30.52928 c 0,-16.79112 0.2183,-30.5293 0.4852,-30.5293 0.2668,0 20.2168,9.49651 44.3333,21.10335 l 43.8482,21.10333 0.3566,32.89667 c 0.1961,18.09316 -0.1039,32.88103 -0.6667,32.86195 -0.5628,-0.0191 -20.6733,-10.58092 -44.6899,-23.47072 z m 57.2111,6.50542 c -0.4768,-9.35 -0.8581,-24.2 -0.8473,-33 l 0.02,-16 18.6416,-9.5574 18.6416,-9.55741 v 28.34745 28.34744 l 4.6666,2.51316 c 2.5667,1.38224 4.6667,2.83516 4.6667,3.22871 10e-5,0.61887 -43.2577,22.67806 -44.4712,22.67806 -0.2478,0 -0.8407,-7.65 -1.3176,-17.00001 z M 1114,217.3504 l -42.6667,-21.07802 5.3334,-2.27008 c 38.3389,-16.31849 72.2821,-30.38196 73.3984,-30.41072 1.2063,-0.0311 61.1785,27.18469 69.6378,31.60208 2.8326,1.47919 2.3186,1.87891 -7.6667,5.96152 l -10.7029,4.37603 v 5.89321 5.89322 l -21.3176,10.67452 c -11.7247,5.87098 -21.7747,10.6209 -22.3334,10.5554 -0.5586,-0.0655 -20.2156,-9.60424 -43.6823,-21.19716 z"
       id="path831"
       inkscape:connector-curvature="0" />
    <path
       style="fill:#506a9c;stroke-width:1.33333337"
       d="m 1379.2463,166.66667 c 0,-18.7 0.1874,-26.35 0.4166,-17 0.2292,9.35 0.2292,24.65 0,34 -0.2292,9.35 -0.4166,1.7 -0.4166,-17 z m -177.6561,-14.33333 c -0.1413,-13.38333 0.1931,-24.33447 0.7431,-24.33586 0.55,-10e-4 0.8436,7.34862 0.6524,16.33334 -0.6335,29.76556 -1.1353,32.64317 -1.3955,8.00252 z"
       id="path829"
       inkscape:connector-curvature="0" />
    <path
       style="fill:#a69d00;stroke-width:1.33333337"
       d="m 1309.7465,283.33334 c 0.01,-4.4 0.2564,-6.03925 0.5531,-3.64278 0.2968,2.39646 0.2907,5.99646 -0.014,8 -0.3042,2.00353 -0.547,0.0428 -0.5395,-4.35722 z m 77.18,2.66667 c 0.027,-2.2 0.326,-2.93859 0.6642,-1.64129 0.338,1.29729 0.3158,3.09729 -0.049,4 -0.3652,0.9027 -0.6417,-0.15871 -0.6146,-2.35871 z m -177.319,-37.66667 c -0.1508,-17.78333 0.1758,-32.3342 0.7258,-32.33525 0.55,-0.001 0.8452,9.44895 0.656,21 -0.6526,39.83147 -1.1084,43.57105 -1.3818,11.33525 z m 176.139,-15.66666 c 0.013,-4.4 0.2564,-6.03926 0.5531,-3.64279 0.2968,2.39647 0.2907,5.99647 -0.013,8 -0.3042,2.00353 -0.547,0.0428 -0.5395,-4.35721 z"
       id="path827"
       inkscape:connector-curvature="0" />
    <path
       style="fill:#942680;stroke-width:1.33333337"
       d="m 1412.834,306.90287 c -17.8825,-9.59983 -20.83,-11.60822 -19,-12.94634 1.8861,-1.37915 2.166,-5.39463 2.166,-31.07175 v -29.4879 l 19,9.38585 19,9.38587 0.3732,16.58237 c 0.2052,9.12031 0.2052,23.99208 0,33.04839 L 1434,318.26537 Z M 1448,285.44894 V 252.2373 l 37.3771,-19.45198 c 20.5574,-10.69859 37.6574,-19.45198 38,-19.45198 0.3426,0 0.6229,15.1549 0.6229,33.67755 v 33.67755 l -38,18.98606 -38,18.98609 z M 1418.3332,232.5 1396,221.31793 v -5.29378 c 0,-4.7591 -0.5051,-5.56037 -5,-7.93336 -2.75,-1.45178 -4.2763,-2.66612 -3.3917,-2.69852 1.0633,-0.0389 1.7409,-3.31472 2,-9.66894 l 0.3917,-9.61 21.2751,-9.1326 21.275,-9.1326 41.1055,18.96726 41.1055,18.96727 -16.3806,8.53685 c -9.0093,4.69527 -25.6806,13.22265 -37.0473,18.94971 l -20.6669,10.41284 z"
       id="path825"
       inkscape:connector-curvature="0" />
    <path
       style="fill:#956217;stroke-width:1.33333337"
       d="m 1298.665,293.06486 c -0.3657,-19.581 -0.2047,-35.14065 0.358,-34.577 0.5627,0.56366 0.8619,16.58447 0.665,35.60182 l -0.358,34.577 z m -134.4516,9.26848 c 0.2169,-12.5394 0.745,-11.04597 1.4153,4.00243 0.2042,4.58467 -0.079,8.33467 -0.6287,8.33334 -0.55,-10e-4 -0.904,-5.55243 -0.7866,-12.33577 z m 145.5575,-3 c 0.01,-5.13333 0.2469,-7.06994 0.5355,-4.3036 0.2886,2.76636 0.2838,6.96636 -0.011,9.33334 -0.2945,2.36699 -0.5307,0.1036 -0.5248,-5.02974 z m 77.3332,-25.33333 c 0,-5.13333 0.247,-7.06995 0.5356,-4.3036 0.2887,2.76636 0.2838,6.96636 -0.013,9.33333 -0.2945,2.36699 -0.5307,0.1036 -0.5248,-5.02973 z m -224.0743,-20.66667 c 0,-3.3 0.26,-4.65 0.5778,-3 0.3179,1.65 0.3179,4.35 0,6 -0.3178,1.65 -0.5778,0.3 -0.5778,-3 z m 222.5141,-30.66666 c 0,-1.83334 0.3026,-2.58334 0.6725,-1.66667 0.3699,0.91667 0.3699,2.41667 0,3.33333 -0.3699,0.91667 -0.6725,0.16667 -0.6725,-1.66666 z"
       id="path823"
       inkscape:connector-curvature="0" />
    <path
       style="fill:#6a1b5b;stroke-width:1.33333337"
       d="m 1434.6649,285.73148 c -0.3657,-19.21438 -0.2044,-34.47384 0.3586,-33.90994 0.5628,0.56391 0.862,16.28475 0.6649,34.9352 l -0.3585,33.90994 z m 12.2784,0.68056 c -0.1521,-18.84006 0.1734,-34.53383 0.7234,-34.87506 0.55,-0.34122 0.846,9.67336 0.6577,22.25464 -0.6395,42.72458 -1.1036,46.96619 -1.3811,12.62042 z m -55.553,9.6801 c -0.4219,-0.68266 -0.2574,-1.55626 0.3657,-1.94134 0.6231,-0.38508 1.1329,0.17345 1.1329,1.2412 0,2.24822 -0.4205,2.44465 -1.4986,0.70014 z m -228.6184,-35.53657 c 0.064,-1.55327 0.38,-1.8692 0.8056,-0.80556 0.3851,0.96249 0.3378,2.11249 -0.1052,2.55556 -0.4431,0.44305 -0.7582,-0.34445 -0.7003,-1.75 z"
       id="path821"
       inkscape:connector-curvature="0" />
    <path
       style="fill:#ffffff;stroke-width:1.33333337"
       d="m 845.33333,493.33335 c 0,-19.8 -0.15,-36.45 -0.33333,-37 -0.18333,-0.55 1.61667,-1.18801 4,-1.41781 4.18333,-0.40335 4.33333,-0.24706 4.33333,4.51516 v 4.93296 L 857,460.69176 c 4.67989,-4.68657 8.28393,-6.02508 16.22296,-6.02508 12.98487,0 21.46841,10.54415 21.41443,26.61586 -0.0359,10.68771 -3.22048,18.32588 -9.70164,23.26931 -8.14063,6.20916 -20.1619,6.27585 -26.77338,0.14854 l -3.4957,-3.2397 v 13.93633 13.93633 H 850 845.33333 Z m 32.60052,5.92074 c 3.96174,-2.59583 7.39948,-10.95411 7.39948,-17.99055 0,-16.95783 -15.08726,-25.4583 -25.93389,-14.61168 -3.89944,3.89944 -4.06611,4.53408 -4.06611,15.48317 0,11.20899 0.0793,11.48798 4.35438,15.3077 5.0252,4.49002 12.95633,5.27737 18.24614,1.81136 z m 32.45076,0.0793 c -0.15512,-16.5 -0.30512,-33.15 -0.33333,-37 -0.0505,-6.90028 0.005,-7 3.94872,-7 3.55204,0 4.07673,0.52262 4.68512,4.66666 0.50892,3.46639 0.92607,4.0685 1.62189,2.34096 1.73566,-4.30906 9.18935,-7.66432 17.02632,-7.66432 8.87278,0 14.30239,2.94082 18.80636,10.186 2.72146,4.37779 3.19364,6.82743 3.19364,16.56807 0,10.30912 -0.36928,11.98874 -3.76356,17.11784 -6.97773,10.54404 -22.27298,13.86903 -31.70854,6.89302 L 920,502.58686 v 13.37324 13.37325 h -4.66667 -4.66666 l -0.28206,-30 z m 34.29576,-2.41371 c 10.06796,-10.06796 6.62032,-30.62524 -5.75812,-34.33392 -4.33401,-1.29849 -5.97252,-1.19545 -9.78901,0.61559 -6.75428,3.20512 -9.14192,8.19916 -9.08599,19.00443 0.0708,13.67622 4.26488,18.98077 15.08608,19.08036 4.06792,0.0375 6.04939,-0.8688 9.54704,-4.36646 z m -285.4022,9.9075 c -7.41952,-3.37023 -12.13548,-9.44479 -13.88865,-17.8898 -2.87735,-13.86013 3.2666,-27.89537 14.21349,-32.46927 5.16343,-2.15742 16.10324,-2.3521 21.31019,-0.37924 9.08952,3.44393 15.02824,13.41981 15.02824,25.24452 0,20.65652 -18.69461,33.65581 -36.66327,25.49379 z m 19.02742,-7.59664 c 4.71072,-3.04659 7.5578,-9.78856 7.5578,-17.89715 0,-8.7631 -3.01379,-15.14743 -8.48642,-17.97743 -11.71844,-6.05984 -22.71277,2.77337 -22.70824,18.24455 0.005,16.2944 11.93876,25.1956 23.63686,17.63003 z m 366.06401,8.62054 c -15.798,-4.56546 -21.7128,-30.12725 -10.1506,-43.86809 5.9375,-7.05632 12.7752,-9.65852 23.9029,-9.0966 5.3342,0.26936 10.0682,0.85933 10.5199,1.31105 0.4517,0.45171 0.4282,2.38748 -0.052,4.30172 -0.7574,3.01765 -1.3422,3.34883 -4.3983,2.49067 -5.7324,-1.60974 -14.5552,-0.82819 -18.2922,1.62034 -1.915,1.2548 -4.6838,4.99847 -6.1527,8.31927 -3.6875,8.33615 -2.4399,16.29223 3.5856,22.86728 4.3579,4.75524 4.6933,4.87 14.2322,4.87 9.4131,0 11.7049,0.83308 11.7487,4.27067 0.046,3.62744 -15.9911,5.5008 -24.9433,2.91369 z m 44.1479,0.24803 c -7.6527,-3.28901 -10.8549,-14.37807 -6.5539,-22.69539 2.5142,-4.8618 11.7871,-9.36419 21.3104,-10.34708 7.0175,-0.72427 7.3927,-0.95161 7.3927,-4.47968 0,-7.76409 -10.5862,-11.54139 -20.6091,-7.35357 -4.7204,1.97229 -6.0576,1.11828 -6.0576,-3.86862 0,-4.47792 20.7288,-6.44814 28.0436,-2.66548 7.1583,3.70168 8.5355,8.41148 9.0581,30.97743 l 0.471,20.33334 h -4.0298 c -2.8698,0 -4.2755,-0.77396 -4.8832,-2.68854 -0.8474,-2.67006 -0.8813,-2.6686 -4.9268,0.2121 -4.4571,3.17366 -14.6461,4.53933 -19.2154,2.57549 z m 19.3335,-10.01264 c 2.2725,-2.27109 3.3767,-5.18425 3.8561,-10.17379 l 0.6718,-6.99146 -7.6261,0.78706 c -12.0803,1.24682 -17.0522,6.27174 -14.8575,15.01616 1.6478,6.5653 11.966,7.34799 17.9557,1.36203 z m 40.1753,9.53432 c -5.6503,-2.85896 -6.6521,-6.85537 -6.6733,-26.6208 l -0.02,-18.33334 h -4 c -3.5555,0 -4,-0.44444 -4,-4 0,-3.55556 0.4445,-4 4,-4 3.6695,0 4,-0.37912 4,-4.58797 0,-4.99948 0.2518,-5.29215 5.6667,-6.58641 3.5884,-0.85771 3.6667,-0.74776 3.6667,5.14898 v 6.0254 h 6.6666 c 6.5186,0 6.6667,0.0889 6.6667,4 0,3.91111 -0.1481,4 -6.6667,4 h -6.6666 v 17.2381 c 0,19.04727 0.8896,21.42857 8.0054,21.42857 4.341,0 7.0105,4.78094 3.8039,6.81271 -2.6621,1.68681 -10.6518,1.39635 -14.4497,-0.52531 z m 68.6404,-0.72109 c -9.4972,-4.49291 -14,-12.50146 -14,-24.89971 0,-17.1211 9.7509,-27.33334 26.0986,-27.33334 9.108,0 15.8314,3.36066 20.5758,10.28462 4.8191,7.03298 5.4558,21.85008 1.3072,30.41992 -5.8328,12.04911 -21.585,17.39312 -33.9816,11.52851 z m 21.586,-10.12192 c 7.8072,-8.37622 7.6134,-23.17835 -0.4083,-31.2001 -4.1911,-4.19103 -5.1003,-4.52475 -10.6301,-3.90147 -9.8551,1.11083 -15.1866,8.4393 -15.2069,20.90282 -0.011,6.74417 4.6803,15.426 9.7093,17.96859 5.8804,2.97302 11.4307,1.70769 16.536,-3.76984 z m 95.414,11.06384 c -4.3771,-1.26383 -5.4865,-3.95742 -3.1492,-7.64596 0.8204,-1.29458 1.8505,-1.43832 3.6462,-0.50883 7.7474,4.00995 17.1823,2.52508 19.1904,-3.02017 1.8074,-4.99102 -0.8886,-8.42907 -9.7666,-12.45454 -4.6902,-2.12662 -9.516,-5.27784 -10.7242,-7.0027 -3.5266,-5.03497 -2.8263,-12.46266 1.6471,-17.46933 3.5048,-3.9225 4.6515,-4.345 13,-4.78997 10.5925,-0.56459 14.2809,1.17863 12.9603,6.12528 -0.5807,2.17463 -1.4532,2.81957 -2.9792,2.20195 -4.5084,-1.8247 -11.8844,-2.18438 -14.6326,-0.71356 -3.5453,1.89736 -3.8453,8.18288 -0.5256,11.00996 1.2834,1.09288 4.4008,2.8073 6.9276,3.80983 2.5268,1.00252 6.5768,3.56349 9,5.69105 3.8812,3.40769 4.4058,4.66129 4.4058,10.52853 0,5.66324 -0.5918,7.21298 -3.9524,10.35236 -5.6296,5.25886 -15.168,6.73872 -25.0476,3.8861 z M 616,485.33335 v -22.66667 h -4.08856 c -3.67364,0 -4.04575,-0.3721 -3.66667,-3.66666 0.33138,-2.87996 1.2086,-3.75719 4.08856,-4.08856 3.25959,-0.37506 3.6669,-0.96719 3.66874,-5.33334 0.004,-10.29164 8.89616,-20.24477 18.08606,-20.24477 6.39004,0 8.57854,1.22692 8.57854,4.80932 0,2.81843 -0.605,3.19068 -5.18563,3.19068 -7.32504,0 -10.91812,3.34756 -11.7776,10.97284 l -0.69893,6.20096 6.49774,0.41309 c 5.9775,0.38003 6.53154,0.7067 6.91964,4.07978 0.41112,3.57304 0.2494,3.66666 -6.33333,3.66666 h -6.75523 v 22.66667 22.66667 H 620.66667 616 Z m 94.66667,-4 v -26.66667 h 3.85734 c 3.8893,0 5.47599,1.92467 5.47599,6.64239 0,1.92995 0.92439,1.49989 4.53333,-2.10905 3.20574,-3.20574 5.74379,-4.53334 8.66667,-4.53334 3.66832,0 4.13333,0.43332 4.13333,3.85162 0,3.33333 -0.61713,3.96738 -4.58629,4.712 -2.75432,0.51672 -5.94988,2.48093 -8,4.91736 -3.29169,3.91194 -3.41371,4.69668 -3.41371,21.95467 v 17.89769 H 716 710.66667 Z m 60.26628,25.09108 c 0.34181,-0.96676 5.97173,-17.52801 12.51093,-36.80277 l 11.88945,-35.04504 5.94638,0.37837 5.94637,0.37836 12.33325,36 c 6.7833,19.8 12.35743,36.15 12.38696,36.33334 0.0296,0.18333 -2.22114,0.33333 -5.00153,0.33333 h -5.05523 l -3.94346,-11.37631 -3.94346,-11.37632 -13.22473,0.37632 -13.22475,0.37631 -3.5479,10.66667 -3.54791,10.66666 -5.07293,0.42442 c -3.74938,0.31366 -4.91078,-0.0341 -4.45144,-1.33334 z m 36.94916,-40.75775 c -2.17184,-6.41666 -4.60251,-14.06666 -5.40148,-17 l -1.45268,-5.33333 -5.15467,16 c -2.83508,8.8 -5.16636,16.45 -5.18064,17 -0.0143,0.55 4.73599,1 10.55615,1 h 10.58212 z m 166.78456,3.66667 V 430.66668 H 980 h 5.33333 v 38.66667 38.66667 H 980 974.66667 Z M 1004,481.24887 v -26.75115 l 4.3333,0.41782 4.3334,0.41781 0.3615,26.33334 0.3615,26.33333 H 1008.6949 1004 Z m 173.6385,0.41782 0.3615,-26.33334 4.3333,-0.41781 4.3334,-0.41782 v 26.75115 26.75115 h -4.6949 -4.6948 z m 91.4726,2.33333 c -0.1223,-13.2 -0.2722,-25.05 -0.3333,-26.33334 -0.082,-1.72677 0.9253,-2.33333 3.8758,-2.33333 3.3565,0 4.0944,0.61271 4.6666,3.87512 0.625,3.56252 0.8333,3.68987 2.5827,1.57875 3.1177,-3.76242 8.9306,-6.12179 15.0309,-6.10088 7.3026,0.0251 11.5386,2.19374 15.3595,7.86361 2.8366,4.20919 3.04,5.88103 3.04,24.98058 v 20.46949 H 1308.6667 1304 l -0.01,-18.33333 c 0,-15.65742 -0.3747,-18.93954 -2.5376,-22.48655 -3.1907,-5.23262 -8.4863,-6.45979 -14.7803,-3.42511 -6.9949,3.37267 -7.9686,6.61123 -7.9908,26.57832 l -0.019,17.66667 H 1274 h -4.6667 z m -264.8444,-40.26667 c -0.88,-0.88 -1.6,-2.86 -1.6,-4.4 0,-5.85697 7.9461,-8.41669 10.6197,-3.42099 1.8752,3.50384 1.742,4.86878 -0.715,7.32575 -2.4953,2.49536 -6.0902,2.70973 -8.3047,0.49524 z m 172.9764,-1.23532 c -2.1421,-4.00252 0.371,-9.16468 4.4616,-9.16468 3.8474,0 6.2953,2.33311 6.2953,6 0,6.04237 -7.9631,8.38509 -10.7569,3.16468 z M 283.57332,417.45264 c -10.67673,-3.51553 -17.67037,-8.46182 -22.31127,-15.77976 l -3.92872,-6.19494 v 11.59437 11.59437 H 238 218.66667 v -50 -50 H 238 257.33333 v 35.33333 c 0,40.17869 -1.41641,36.40553 12.75512,33.97828 17.0855,-2.92633 16.00134,-2.97162 17.692,0.739 2.19966,4.82773 9.14006,7.28273 20.58855,7.28273 10.63505,0 14.90411,-1.84359 14.09785,-6.08814 -0.58718,-3.09123 -5.83636,-4.73963 -24.25772,-7.61765 -15.91693,-2.48675 -28.7183,-8.23123 -32.69313,-14.67068 -7.24988,-11.74526 -6.44457,-27.63636 1.86675,-36.83599 15.29534,-16.93012 55.76389,-19.12181 75.0139,-4.06259 3.45552,2.70324 10.93668,12.68572 10.93668,14.59335 0,0.50436 -6.59469,2.2832 -14.65489,3.95297 l -14.65488,3.03595 -3.76985,-4.03564 c -4.52594,-4.84503 -13.01514,-6.57976 -21.29222,-4.35097 -7.1343,1.92106 -7.87362,3.36138 -3.70736,7.22254 2.70904,2.51066 5.51528,3.34364 13.74172,4.079 22.47083,2.00866 38.11104,7.92924 43.96175,16.64168 L 356,372.39437 v -26.86385 -26.86384 h 19.33333 19.33334 l 0.0196,32.33333 c 0.0212,34.92068 0.54197,37.96103 6.88382,40.19134 4.66639,1.64108 11.59263,-1.2358 13.2087,-5.48636 C 415.45048,383.93844 416,368.13215 416,350.57988 v -31.9132 h 19.33333 19.33334 l 0.0405,30.33333 c 0.0305,22.85823 0.40311,29.67619 1.5118,27.66667 2.59936,-4.7114 8.31315,-10.17503 13.35119,-12.76665 8.2562,-4.24711 27.4963,-9.19728 39.26293,-10.10174 10.46969,-0.80476 11.16687,-1.04737 11.16687,-3.88593 0,-4.82716 -1.3895,-7.20624 -5.4287,-9.295 -7.62637,-3.94375 -18.58142,-0.99813 -20.88718,5.61617 l -1.34342,3.85372 -17.51944,-1.50382 c -9.63569,-0.8271 -17.77686,-1.76123 -18.09148,-2.07586 -1.24782,-1.24782 4.55996,-11.70841 8.92294,-16.0714 9.55792,-9.5579 22.5782,-13.41901 45.01394,-13.34869 24.15946,0.0757 36.79543,4.98319 43.01347,16.70524 2.77313,5.22783 2.97804,7.66103 3.62947,43.09852 0.37972,20.65684 1.1404,38.00684 1.6904,38.55555 0.55,0.54872 1,-29.10234 1,-65.89122 L 560,282.66668 h 19.33333 19.33334 v 68 68 h -37.84862 -37.8486 l -0.90426,-6.0301 -0.90428,-6.03011 -5.43474,4.65193 c -7.79618,6.67326 -16.22156,9.11126 -29.47233,8.52824 -13.47173,-0.59273 -22.05456,-4.36066 -27.70699,-12.16362 l -3.88018,-5.35644 v 8.20005 8.20005 H 436 417.33333 v -7.33717 -7.33717 l -5,5.54557 c -6.93816,7.69521 -13.50989,10.39704 -25.37616,10.43283 -5.34021,0.0161 -11.64958,-0.78135 -14.02082,-1.77211 -5.7225,-2.39101 -12.43647,-10.22076 -14.40858,-16.80309 l -1.59252,-5.31536 -3.27956,4.95992 c -4.46906,6.75892 -9.73266,10.75085 -19.44865,14.74989 -7.05875,2.90535 -10.63223,3.43672 -25.54037,3.79788 -14.28796,0.34615 -18.69674,-0.0289 -25.09335,-2.13523 z M 513.17751,393.82576 C 517.26552,390.9624 520,384.15896 520,376.85124 v -5.90111 l -5.46076,1.22696 c -7.79743,1.75196 -13.87599,4.493 -17.08904,7.70606 -3.37512,3.37512 -3.66572,10.26543 -0.57688,13.67855 2.81201,3.10724 12.03179,3.25656 16.30419,0.26406 z m 242.3098,24.21119 c -6.55986,-2.33805 -14.99595,-10.50804 -16.94343,-16.40896 -0.82373,-2.49597 -1.26495,-8.65749 -0.98045,-13.69226 0.8667,-15.33872 8.43478,-23.28488 27.7699,-29.15724 10.28898,-3.1249 23.73779,-5.42109 31.83334,-5.43508 L 803,353.33271 802.13425,349.004 c -0.47614,-2.38079 -1.93701,-5.39999 -3.24637,-6.70933 -5.86487,-5.86487 -20.41215,-3.30364 -22.97384,4.04482 l -1.31244,3.7649 -17.29256,-1.48871 c -9.51091,-0.81879 -17.66495,-1.86109 -18.12009,-2.31625 -1.63831,-1.63831 5.1598,-13.05744 10.48913,-17.61916 11.02441,-9.43648 31.58797,-13.77186 53.53188,-11.28602 18.85604,2.13604 31.19668,9.32418 34.12897,19.87931 0.72208,2.5992 1.31622,15.37581 1.3203,28.39248 0.007,21.64991 0.20628,23.66624 2.34077,23.66159 1.28333,-0.003 7.68807,-0.87423 14.23275,-1.93655 10.99842,-1.78523 12.03,-1.7596 13.62425,0.33841 0.94867,1.24843 1.74393,2.65153 1.76727,3.11797 0.12533,2.50633 9.93148,5.15192 19.0962,5.15192 8.04598,0 10.59514,-0.51766 13.13182,-2.66667 L 906,390.66608 l -3.05747,-2.59359 c -1.6816,-1.42646 -5.8816,-2.96778 -9.33333,-3.42514 -32.46428,-4.30154 -45.13817,-10.43392 -49.61809,-24.0082 -2.18531,-6.62156 -1.13436,-18.92402 2.1678,-25.37656 5.87657,-11.483 22.35557,-18.453 43.17442,-18.26116 16.42802,0.15138 27.98918,3.6383 36.29052,10.94544 5.31027,4.67428 10.31976,12.55482 8.88895,13.98338 -0.28204,0.28159 -6.948,1.86208 -14.81324,3.5122 l -14.30045,3.00022 -2.7204,-3.45844 c -5.058,-6.4302 -19.35088,-8.07279 -26.16534,-3.00702 -2.4454,1.81788 -2.43525,1.9476 0.37534,4.79698 2.28026,2.31173 5.71366,3.29441 16.30068,4.66541 25.44502,3.29512 37.23689,8.50516 42.70782,18.86973 l 2.6516,5.02342 0.0589,-28.33334 0.0589,-28.33273 H 958 977.33333 v 50 50 H 958 938.66667 l -0.005,-11 -0.005,-11 -2.48429,4 c -8.36712,13.47198 -26.03551,19.95091 -52.06078,19.0905 -13.51698,-0.44688 -16.48477,-0.98546 -23.77493,-4.31447 -7.6326,-3.4854 -15.31844,-10.22729 -19.98463,-17.53023 -1.36388,-2.13456 -1.50413,-1.08524 -0.81364,6.08754 0.45887,4.76666 1.33559,10.01666 1.94827,11.66666 l 1.11397,3 h -18.47816 c -20.49992,0 -20.0565,0.2167 -20.1043,-9.82488 L 804,405.01694 l -4.33333,4.32136 c -7.42459,7.40408 -16.0885,10.6424 -28.33334,10.59017 -5.86666,-0.0251 -12.99737,-0.87621 -15.84602,-1.89152 z m 40.95362,-24.76425 c 3.80834,-2.99564 6.20679,-9.8211 6.2183,-17.69587 0.007,-4.22439 -0.38932,-4.97198 -2.3259,-4.39666 -1.28333,0.38127 -4.13333,1.10684 -6.33333,1.61239 -6.19524,1.42364 -13.76559,5.61144 -15.28875,8.45748 -2.03842,3.80883 -1.67246,10.26496 0.71732,12.65474 3.0798,3.0798 12.75023,2.7205 17.01236,-0.63208 z m 217.42077,24.90718 c -17.11619,-5.57861 -29.06059,-20.67236 -32.58758,-41.17987 -2.89916,-16.85704 3.33821,-36.5533 14.87681,-46.97773 24.53477,-22.16571 66.91237,-15.81917 79.20887,11.86243 4.2194,9.49868 5.0222,13.68341 2.7894,14.54021 -1.0075,0.3866 -8.9081,0.85493 -17.557,1.04073 l -15.7252,0.33783 -1.7928,-5.23507 c -2.1684,-6.33188 -4.8908,-8.5684 -10.43,-8.5684 -5.9586,0 -9.6798,4.57762 -11.45,14.08532 -2.6676,14.32732 0.5608,30.57246 6.7319,33.87517 6.8202,3.65002 13.6631,0.11186 16.685,-8.62715 l 1.8442,-5.33334 9.1474,0.44346 c 5.0311,0.2439 12.4287,0.84609 16.439,1.3382 7.1498,0.87733 7.2827,0.97248 6.8343,4.88988 -1.3638,11.91483 -12.4198,25.93176 -24.876,31.53807 -8.2583,3.71689 -31.3078,4.84832 -40.1383,1.97026 z m -893.75303,-49.8596 c -9.1069,-27.67615 -19.09813,-58.27027 -22.202741,-67.98694 l -5.644738,-17.66666 h 22.361419 22.36142 l 10.76217,38.33333 c 5.91919,21.08334 11.31955,40.43334 12.00079,43 l 1.23861,4.66667 1.70257,-4 c 0.93643,-2.2 6.67339,-21.30873 12.74882,-42.46384 6.07544,-21.15511 11.23752,-38.65178 11.47129,-38.8815 0.23379,-0.2297 16.17505,-0.85604 35.42505,-1.39186 l 35,-0.97423 v 13.52239 13.52237 h -19.27241 -19.27241 l -0.39426,-8.88644 c -0.39337,-8.86647 -0.43806,-8.7428 -19.8793,55 l -19.48506,63.88645 -21.18161,0.32026 -21.18161,0.32027 z M 624,350.66233 v -68.1716 l 40.33333,0.42131 c 37.70166,0.39381 40.72924,0.60449 46.40108,3.22885 13.65162,6.3166 21.15386,16.64169 22.2793,30.6623 0.54868,6.83532 0.0981,9.44097 -2.68274,15.51517 -3.37141,7.36413 -9.37521,13.1354 -15.6643,15.05761 -3.2144,0.98247 -3.14736,1.08327 1.87902,2.82515 C 729.66052,354.74605 736,364.29753 736,379.51231 c 0,18.40233 -5.9192,29.41124 -18.99029,35.31933 -6.8414,3.0923 -8.04215,3.17839 -50.00971,3.58532 l -43,0.41696 z m 68.22009,34.5143 c 5.41991,-3.85932 6.9581,-8.31986 4.50495,-13.06375 -2.71441,-5.24908 -8.52179,-7.19652 -21.85975,-7.33043 l -11.53196,-0.11577 -0.38524,11.66667 -0.38525,11.66666 h 12.84609 c 10.94655,0 13.43239,-0.41749 16.81116,-2.82338 z m -0.76974,-53.5843 c 4.46405,-5.1923 4.3365,-11.85097 -0.29683,-15.49554 -2.98613,-2.3489 -5.38631,-2.76344 -16,-2.76344 h -12.48685 v 11.46204 11.46204 l 12.78368,-0.46204 c 12.09057,-0.43699 12.95805,-0.66487 16,-4.20306 z m 406.28105,17.79499 c -8.0927,-4.9344 -10.5668,-14.48072 -5.7854,-22.32257 6.6589,-10.92088 21.4491,-10.92088 28.108,0 4.8804,8.00421 1.8532,18.50156 -6.5955,22.87053 -5.365,2.77435 -10.5761,2.59279 -15.7271,-0.54796 z m 17.5222,-5.38168 c 3.9557,-3.95569 3.7977,-13.54697 -0.2906,-17.63525 -3.9361,-3.93604 -13.3786,-4.21756 -17.4636,-0.52066 -5.9717,5.40435 -4.5851,16.76688 2.5006,20.49072 4.3396,2.28062 11.7765,1.14228 15.2536,-2.33481 z M 1100,334.66668 v -8 h 5.1701 c 6.5013,0 9.4679,2.93805 6.9834,6.91632 -1.4469,2.31691 -1.2608,3.15247 1.3127,5.89173 l 2.9986,3.19195 h -3.5544 c -2.1105,0 -4.231,-1.08335 -5.2198,-2.66667 -0.916,-1.46666 -2.1211,-2.66666 -2.678,-2.66666 -0.5569,0 -1.0126,1.2 -1.0126,2.66666 0,1.48148 -0.8889,2.66667 -2,2.66667 -1.5556,0 -2,-1.77777 -2,-8 z m 8.6667,-2.66667 c 0,-1.07992 -1.05,-2.16569 -2.3334,-2.41284 -1.6371,-0.31528 -2.3333,0.40464 -2.3333,2.41284 0,2.0082 0.6962,2.72812 2.3333,2.41284 1.2834,-0.24714 2.3334,-1.33292 2.3334,-2.41284 z m 153.3717,-14.11416 -39.9615,-22.09993 -32.7462,15.87223 -32.7461,15.87222 -47.719,-25.76519 -47.7191,-25.76517 H 561.23993 61.333333 v -6 -6 H 558.64453 1055.9557 l 0.3555,-34.90913 0.3555,-34.90914 L 1080,184.07299 c 12.8333,-5.5598 34.2783,-14.84442 47.6556,-20.63249 l 24.3222,-10.52375 19.0111,9.02403 c 10.4561,4.96321 19.7611,9.32113 20.6778,9.68428 1.3004,0.51517 1.6666,-5.31723 1.6666,-26.54339 V 117.87804 L 1241,98.077469 c 26.2167,-10.890312 47.9667,-19.943238 48.3333,-20.117613 0.3667,-0.174374 22.5667,9.739946 49.3334,22.031823 l 48.6666,22.348871 0.7366,27.16306 c 0.4052,14.93969 0.8552,27.27114 1,27.40325 0.1449,0.13213 10.0134,-4.00793 21.9301,-9.20008 11.9167,-5.19216 22.2667,-9.44664 23,-9.45443 0.7333,-0.008 22.9333,10.25532 49.3333,22.8069 l 48,22.82104 0.8235,20.39319 c 0.4531,11.21626 0.9031,29.74725 1,41.17998 l 0.1765,20.78679 -35,17.066 c -19.25,9.3863 -40.4813,19.78355 -47.1808,23.105 l -12.1806,6.03899 -28.7542,-15.55844 c -15.8148,-8.55715 -29.4484,-15.55846 -30.2969,-15.55846 -0.8485,0 -18.3973,8.70001 -38.9973,19.33334 -20.6,10.63333 -37.7851,19.33013 -38.1891,19.32621 -0.4039,-0.004 -18.7171,-9.95208 -40.696,-22.10704 z m 36.9846,-59.29237 c -1.4966,-1.3448 -87.2879,-42.59347 -88.5882,-42.59347 -0.6058,0 -1.1015,14.32408 -1.1015,31.83128 v 31.83127 l 45,24.04421 45,24.0442 0.3564,-34.11915 c 0.196,-18.76552 -0.104,-34.53278 -0.6667,-35.03834 z m 61.6437,43.7777 c 13.9333,-6.60106 25.7838,-12.41558 26.3345,-12.92114 0.5508,-0.50558 0.6057,-16.29312 0.1227,-35.08344 l -0.8792,-34.16422 -38.4555,19.2366 -38.4555,19.23659 v 19.78813 c 0,10.88348 0.3861,26.09726 0.8579,33.80839 l 0.8578,14.02024 12.1422,-5.95961 c 6.6782,-3.27777 23.5421,-11.36047 37.4755,-17.96154 z M 1436,286.15566 v -33.84434 l -19.4764,-9.48899 c -10.712,-5.21895 -19.712,-9.48899 -20,-9.48899 -0.288,0 -0.5236,13.12682 -0.5236,29.17071 0,28.37107 -0.079,29.22288 -2.8671,31.07432 -2.7172,1.80417 -1.6897,2.53905 19.6667,14.06607 12.3936,6.68935 22.6837,12.20589 22.8671,12.25901 0.1833,0.0531 0.3333,-15.1334 0.3333,-33.74779 z m 88,-39.59704 v -34.76583 l -13.6667,7.26971 c -7.5166,3.99834 -24.9166,13.0933 -38.6666,20.21102 l -25,12.9413 v 33.89704 33.89705 L 1485.3333,300.66668 1524,281.32445 Z m -370.6667,34.3092 V 247.06898 L 1135,238.3138 c -10.0833,-4.81536 -30.1833,-14.47728 -44.6667,-21.47095 L 1064,204.12709 l 0.048,31.60313 0.048,31.60312 44.2851,23.62775 c 24.3568,12.99527 44.4351,23.64527 44.6185,23.66667 0.1833,0.0215 0.3333,-15.17056 0.3333,-33.75994 z m 35.3236,22.14987 c 12.8387,-6.40695 23.3385,-11.95695 23.3328,-12.33333 -0.01,-0.37639 -2.4056,-2.05227 -5.3333,-3.72416 l -5.3231,-3.03982 V 255.9602 c 0,-15.37811 -0.45,-27.92403 -1,-27.87984 -0.55,0.0443 -9.1,4.39638 -19,9.67153 l -18,9.59119 0.048,7.6618 c 0.2248,36.16252 0.7274,59.6618 1.276,59.6618 0.3612,0 11.1612,-5.24204 24,-11.64899 z m 153.5822,-71.00925 c 19.6685,-9.46279 35.6629,-17.68583 35.5432,-18.27342 -0.2671,-1.31032 -79.0064,-37.73501 -81.5719,-37.73501 -3.0673,0 -80.1287,32.6066 -79.1356,33.48425 3.4245,3.0262 85.3073,41.02926 87.1458,40.44572 1.2416,-0.39405 18.3499,-8.45874 38.0185,-17.92154 z m 136.298,-6.8577 c 20.238,-10.36709 36.9624,-18.9832 37.1654,-19.14691 0.7158,-0.57722 -81.2652,-38.00382 -83.2454,-38.00382 -1.104,0 -11.2586,3.96856 -22.5655,8.81902 l -20.5583,8.81904 v 9.11471 c 0,6.86585 -0.5124,9.40151 -2.077,10.27708 -1.6418,0.9188 -0.9434,1.67355 3.3333,3.60208 5.0524,2.27828 5.4104,2.80259 5.4104,7.92287 v 5.48313 l 21.6667,10.90459 c 11.9166,5.99753 22.2084,10.93899 22.8704,10.98104 0.6621,0.042 17.7621,-8.40573 38,-18.77283 z m -277.2038,-12.88228 v -5.76903 l 8.3334,-3.6709 c 4.5833,-2.01902 9.7692,-4.26346 11.5241,-4.98767 2.8209,-1.16411 -1.0535,-3.27927 -33.4209,-18.24548 -20.1364,-9.31079 -36.9729,-16.92871 -37.4143,-16.92871 -0.6698,0 -60.4762,24.95458 -75.6889,31.58164 l -4.6667,2.03292 44,21.6415 44,21.64149 21.6667,-10.76336 21.6666,-10.76336 z m 176.5576,-11.74444 c 1.8466,-0.70859 2.1091,-5.02291 2.1091,-34.66351 v -33.85419 l -36.6667,18.3189 c -20.1666,10.0754 -36.6666,18.63217 -36.6666,19.01507 0,0.65624 66.3204,31.65022 68.2242,31.88377 0.49,0.0601 1.84,-0.25491 3,-0.70004 z m -116.2242,-19.44337 c 14.4833,-6.01935 26.3329,-11.27495 26.3324,-11.67912 -9e-4,-0.80531 -84.046,-41.4368 -85.6658,-41.41499 -0.55,0.007 -1,10.99367 -1,24.41392 v 24.40047 L 1217,184.27571 c 8.6167,4.11114 16.2667,7.53654 17,7.61199 0.7333,0.0755 13.1833,-4.78772 27.6667,-10.80705 z m 71.8349,-37.28434 c 20.4408,-10.37869 37.1569,-19.22869 37.1469,-19.66666 -0.013,-0.43797 -18.5929,-9.33066 -41.2955,-19.76154 l -41.2775,-18.965219 -37.7044,16.106789 c -20.7374,8.85874 -38.2332,16.60184 -38.8794,17.2069 -0.8568,0.80217 81.0265,43.40029 84.3432,43.87787 0.2759,0.0397 17.2259,-8.41944 37.6667,-18.79814 z m 175.8317,172.2037 c 0,-5.03704 -0.4889,-6.66666 -2,-6.66666 -1.1,0 -2,-0.6 -2,-1.33334 0,-0.73333 2.7,-1.33333 6,-1.33333 3.3,0 6,0.6 6,1.33333 0,0.73334 -0.9,1.33334 -2,1.33334 -1.511,0 -2,1.62962 -2,6.66666 0,5.03704 -0.4889,6.66667 -2,6.66667 -1.511,0 -2,-1.62963 -2,-6.66667 z M 1520,314.66668 c 0,-7.61684 0.1576,-8 3.2908,-8 2.2317,0 3.9136,1.17997 5.2264,3.66667 l 1.9359,3.66666 1.407,-3.66666 c 1.021,-2.66024 2.3312,-3.66667 4.7735,-3.66667 3.2256,0 3.3664,0.33464 3.3664,8 0,6.22223 -0.4444,8 -2,8 -1.4851,0 -2.022,-1.63049 -2.0853,-6.33333 l -0.085,-6.33334 -2.1566,4.33334 c -1.1862,2.38333 -2.839,4.33333 -3.6728,4.33333 -0.8339,0 -2.4867,-1.95 -3.6728,-4.33333 l -2.1567,-4.33334 -0.085,6.33334 c -0.064,4.70284 -0.6003,6.33333 -2.0854,6.33333 -1.5556,0 -2,-1.77777 -2,-8 z m -581.33333,-20 V 281.33334 H 958 977.33333 v 13.33334 13.33333 H 958 938.66667 Z M 220.15397,246.0636 c -15.56112,-5.02599 -24.68753,-24.21784 -21.35545,-44.90819 2.28648,-14.19772 7.99832,-22.80835 18.2402,-27.49724 13.00203,-5.95252 28.40252,-2.27047 34.97357,8.36173 4.06542,6.57797 5.68775,12.92257 3.63735,14.22485 -4.21515,2.6772 -7.51335,1.1146 -10.1292,-4.79896 -3.38155,-7.64454 -8.26016,-10.80681 -16.47891,-10.68142 -5.16625,0.0788 -7.17994,0.84138 -10.42062,3.94616 -10.41207,9.97538 -10.37715,38.40504 0.06,48.84217 3.15222,3.15222 4.89812,3.78064 10.50348,3.78064 5.55278,0 7.50745,-0.68889 11.23105,-3.95826 2.47951,-2.17704 5.07361,-5.92704 5.76468,-8.33334 1.14907,-4.00109 1.65095,-4.33569 5.87152,-3.91445 2.53827,0.25333 4.80448,0.64277 5.036,0.86541 0.23153,0.22264 -0.24371,2.87324 -1.05609,5.89023 -1.64699,6.1164 -7.87983,13.94732 -13.35428,16.77828 -5.58855,2.88993 -15.925,3.53353 -22.52328,1.40239 z m 109.63302,0.73274 c -15.85056,-4.05192 -25.91842,-21.39388 -24.09492,-41.50369 2.80709,-30.95708 34.2865,-45.67358 54.49337,-25.47542 7.3334,7.33026 10.48503,16.18435 10.47379,29.42478 -0.009,11.13427 -1.65259,16.96447 -7.02847,24.93855 -6.89171,10.22252 -21.66436,15.72924 -33.84377,12.61578 z m 19.26574,-12.14712 c 6.59924,-4.02352 10.0508,-12.88916 10.11544,-25.98255 0.0737,-14.91813 -3.33236,-22.37632 -11.96221,-26.1937 -7.27728,-3.2191 -14.70101,-2.63019 -20.70095,1.64214 -4.68614,3.33683 -7.84126,13.192 -7.8309,24.46023 0.0107,11.47268 2.18209,17.92794 7.9821,23.72794 4.44246,4.44246 5.78823,5.02948 11.52026,5.02508 4.14209,-0.003 8.07704,-0.97247 10.87626,-2.67914 z m 52.01822,11.54934 c -8.74936,-2.44538 -15.87802,-7.54294 -19.42204,-13.88834 l -3.01776,-5.40314 5.44094,-0.91924 c 2.99251,-0.50559 5.5821,-0.70968 5.75463,-0.45354 0.17255,0.25614 1.37877,2.16583 2.68053,4.24375 3.1551,5.03629 9.66195,7.55529 19.51614,7.55529 15.40484,0 23.08074,-8.14221 15.64328,-16.59361 -2.32903,-2.64653 -6.493,-4.28926 -18.61758,-7.34479 -8.58966,-2.16468 -17.17033,-4.9532 -19.06814,-6.19669 -10.98696,-7.19894 -9.41232,-24.84547 2.85869,-32.03678 15.36003,-9.00157 39.10613,-3.44693 44.32375,10.36811 1.64226,4.34835 0.92492,5.13709 -4.67203,5.13709 -3.09269,0 -4.839,-0.82489 -5.88536,-2.78001 -1.87032,-3.49472 -11.21593,-7.81879 -16.98216,-7.85737 -9.85984,-0.066 -17.39723,6.04636 -15.71604,12.7447 1.18391,4.7171 5.62561,6.97134 17.98888,9.12967 13.61408,2.37671 24.75168,7.57084 27.45871,12.80565 2.53993,4.9117 2.53896,15.00493 -10e-4,19.91846 -5.04938,9.76443 -24.12104,15.52879 -38.2825,11.57079 z m 71.67281,-0.11174 c -11.20031,-4.15244 -18.11453,-12.49412 -21.51285,-25.95425 -4.94303,-19.57835 2.87988,-38.93642 18.7146,-46.31003 16.57877,-7.72008 34.42996,-0.88847 42.89642,16.41637 5.17968,10.58688 5.3145,25.77434 0.32338,36.42781 -1.88962,4.03333 -5.17483,9.07148 -7.30048,11.19589 -8.11803,8.11327 -23.2713,11.87593 -33.12107,8.22421 z m 21.74551,-12.1421 c 6.28678,-5.28999 9.94393,-16.53972 9.08444,-27.94467 -0.82824,-10.99034 -3.51243,-18.04279 -8.30064,-21.80919 -9.407,-7.39955 -26.19598,-3.36693 -29.73646,7.14252 -5.12861,15.22356 -3.00256,32.27839 5.08343,40.77854 4.61883,4.85538 5.48851,5.22146 12.40455,5.22146 6.02042,0 8.20477,-0.64564 11.46468,-3.38866 z m 89.43286,12.79102 c -12.23749,-3.71334 -13.6385,-7.57602 -14.33864,-39.53244 l -0.55786,-25.46343 -12.17948,0.13014 -12.17948,0.13 -0.35747,31.66666 -0.35747,31.66667 h -5.28506 -5.28507 l -0.35747,-31.66667 -0.35746,-31.66666 -6.33334,-0.40639 c -6.25138,-0.40113 -6.33333,-0.46583 -6.33333,-5 v -4.59361 h 6.66667 6.66666 v -6.1518 c 0,-7.34592 3.97168,-15.13558 9.3314,-18.30163 3.74404,-2.21167 13.89479,-2.92017 19.6686,-1.37285 2.33988,0.62705 3,1.76868 3,5.18824 0,4.33413 -0.0601,4.37622 -5.2528,3.67974 -8.16709,-1.09544 -11.9938,0.42504 -14.1684,5.62959 -1.05166,2.51701 -1.91213,6.09567 -1.91213,7.95255 0,3.37573 10e-4,3.37616 12.66667,3.37616 h 12.66666 v -8.5 c 0,-8.45334 0.0229,-8.50458 4.16667,-9.33334 7.83028,-1.56605 7.83333,-1.56274 7.83333,8.5 v 9.33334 H 590 h 8.66667 v 4.66666 4.66667 H 590 581.33333 v 25.33333 c 0,30.08733 0.2393,30.66667 12.66667,30.66667 h 7.33333 v 5.33334 5.33333 l -7,-0.11453 c -3.85,-0.0631 -8.53504,-0.5804 -10.4112,-1.14971 z M 60,196.00001 v -49.33334 h 9.683545 9.683546 l 13.902262,38.74402 c 7.646247,21.30921 14.255207,38.96215 14.686577,39.22875 0.43137,0.2666 7.4376,-17.01821 15.5694,-38.41069 l 14.78508,-38.89541 8.8448,-0.39425 L 156,146.54483 v 49.39426 49.39425 h -6 -6 v -42.26667 c 0,-23.24666 -0.50788,-41.69666 -1.12863,-41 -0.62074,0.69667 -7.91229,19.71667 -16.20343,42.26667 l -15.07481,41 h -4.27492 -4.27492 l -15.063867,-41 c -8.285127,-22.55 -15.569868,-41.57 -16.188312,-42.26667 -0.618444,-0.69666 -1.124444,17.75334 -1.124444,41 v 42.26667 H 65.333333 60 Z m 116,12.66666 v -36.66666 h 5.33333 5.33334 v 36.66666 36.66667 H 181.33333 176 Z m 92,-0.0805 v -36.74715 l 5,0.41382 5,0.41382 0.40113,8.49423 0.40114,8.49423 4.26553,-7.03694 c 4.70151,-7.75612 10.98897,-11.95148 17.9114,-11.95148 4.18879,0 4.35413,0.20194 4.35413,5.31758 0,5.1973 -0.12413,5.33741 -5.48488,6.19465 -7.72461,1.23521 -16.06485,7.95051 -18.04918,14.53263 -0.93158,3.09009 -1.63692,14.29517 -1.6968,26.95515 L 280,245.33334 h -6 -6 V 208.58618 Z M 615.06473,189.3873 c -8.0927,-4.9344 -10.56684,-14.48072 -5.78537,-22.32257 6.65884,-10.92088 21.44911,-10.92088 28.10795,0 4.88046,8.00421 1.85321,18.50156 -6.59547,22.87053 -5.36499,2.77435 -10.57613,2.59279 -15.72711,-0.54796 z m 17.52223,-5.38168 c 3.95571,-3.95569 3.79763,-13.54697 -0.29067,-17.63525 -3.93602,-3.93604 -13.37853,-4.21756 -17.46356,-0.52065 -5.97174,5.40434 -4.5851,16.76688 2.5006,20.49072 4.33956,2.28061 11.77655,1.14228 15.25363,-2.33482 z m -15.25363,-9.33892 v -8 h 5.17008 c 6.50134,0 9.46791,2.93806 6.98344,6.91632 -1.44693,2.31691 -1.26077,3.15247 1.31264,5.89174 l 2.99868,3.19194 h -3.55445 c -2.11045,0 -4.23101,-1.08334 -5.21981,-2.66666 -0.91595,-1.46667 -2.12104,-2.66667 -2.67798,-2.66667 -0.55693,0 -1.0126,1.2 -1.0126,2.66667 0,1.48148 -0.88889,2.66666 -2,2.66666 -1.55556,0 -2,-1.77777 -2,-8 z M 626,172.00001 c 0,-1.07992 -1.05,-2.1657 -2.33333,-2.41284 -1.63714,-0.31528 -2.33334,0.40464 -2.33334,2.41284 0,2.0082 0.6962,2.72812 2.33334,2.41284 C 624.95,174.1657 626,173.07993 626,172.00001 Z m -451.77777,-12.8889 c -0.4889,-0.48888 -0.8889,-3.48888 -0.8889,-6.66666 v -5.77778 H 180 h 6.66667 v 6.66667 6.66667 h -5.77778 c -3.17778,0 -6.17778,-0.4 -6.66666,-0.8889 z"
       id="path819"
       inkscape:connector-curvature="0" />
  </g>
</svg>
